name Walk6.mot
datacolumns 19
datarows 25
range 2.10500000 2.12900000
endheader

                time	   L_ground_force_vx	   L_ground_force_vy	   L_ground_force_vz	   L_ground_force_px	   L_ground_force_py	   L_ground_force_pz	   R_ground_force_vx	   R_ground_force_vy	   R_ground_force_vz	   R_ground_force_px	   R_ground_force_py	   R_ground_force_pz	   L_ground_torque_x	   L_ground_torque_y	   L_ground_torque_z	   R_ground_torque_x	   R_ground_torque_y	   R_ground_torque_z	
          2.10500000	          6.93980528	         44.79049986	         -5.10479349	          0.00150621	          0.00000000	          0.00092988	         -0.00000000	          0.00000000	          0.00000000	          0.00000000	          0.00000000	          0.00000000	          0.00000000	         -0.00567262	          0.00000000	          0.00000000	         -0.00000000	          0.00000000	
          2.10600000	          6.95590680	         50.60615958	         -5.66806043	         -0.02005522	          0.00000000	         -0.00229212	         -0.00000000	          0.00000000	          0.00000000	          0.00000000	          0.00000000	          0.00000000	          0.00000000	         -0.01168811	          0.00000000	          0.00000000	         -0.00000000	          0.00000000	
          2.10700000	          6.96022633	         56.57386172	         -6.23164323	         -0.04153590	          0.00000000	         -0.00550454	         -0.00000000	          0.00000000	          0.00000000	          0.00000000	          0.00000000	          0.00000000	          0.00000000	         -0.01779595	          0.00000000	          0.00000000	         -0.00000000	          0.00000000	
          2.10800000	          6.95140414	         62.68628144	         -6.79373133	         -0.06286662	          0.00000000	         -0.00869715	         -0.00000000	          0.00000000	          0.00000000	          0.00000000	          0.00000000	          0.00000000	          0.00000000	         -0.02398689	          0.00000000	          0.00000000	         -0.00000000	          0.00000000	
          2.10900000	          6.92796222	         68.93526965	         -7.35243004	         -0.08397997	          0.00000000	         -0.01186003	         -0.00000000	          0.00000000	          0.00000000	          0.00000000	          0.00000000	          0.00000000	          0.00000000	         -0.03025155	          0.00000000	          0.00000000	         -0.00000000	          0.00000000	
          2.11000000	          6.88828977	         75.31186536	         -7.90577321	         -0.10481295	          0.00000000	         -0.01498397	         -0.00000000	          0.00000000	          0.00000000	          0.00000000	          0.00000000	          0.00000000	          0.00000000	         -0.03658056	          0.00000000	          0.00000000	         -0.00000000	          0.00000000	
          2.11100000	          6.83062796	         81.80635166	         -8.45174079	         -0.12530856	          0.00000000	         -0.01806074	         -0.00000000	          0.00000000	          0.00000000	          0.00000000	          0.00000000	          0.00000000	          0.00000000	         -0.04296487	          0.00000000	          0.00000000	         -0.00000000	          0.00000000	
          2.11200000	          6.75305931	         88.40834290	         -8.98827631	         -0.14541593	          0.00000000	         -0.02108305	         -0.00000000	          0.00000000	          0.00000000	          0.00000000	          0.00000000	          0.00000000	          0.00000000	         -0.04939605	          0.00000000	          0.00000000	         -0.00000000	          0.00000000	
          2.11300000	          6.65350220	         95.10690586	         -9.51330409	         -0.16509001	          0.00000000	         -0.02404450	         -0.00000000	          0.00000000	          0.00000000	          0.00000000	          0.00000000	          0.00000000	          0.00000000	         -0.05586663	          0.00000000	          0.00000000	         -0.00000000	          0.00000000	
          2.11400000	          6.52971152	        101.89071548	        -10.02474592	         -0.18429116	          0.00000000	         -0.02693950	         -0.00000000	          0.00000000	          0.00000000	          0.00000000	          0.00000000	          0.00000000	          0.00000000	         -0.06237033	          0.00000000	          0.00000000	         -0.00000000	          0.00000000	
          2.11500000	          6.37928644	        108.74823994	        -10.52053657	         -0.20298487	          0.00000000	         -0.02976324	         -0.00000000	          0.00000000	          0.00000000	          0.00000000	          0.00000000	          0.00000000	          0.00000000	         -0.06890229	          0.00000000	          0.00000000	         -0.00000000	          0.00000000	
          2.11600000	          6.19968627	        115.66794536	        -10.99863705	         -0.22114144	          0.00000000	         -0.03251164	         -0.00000000	          0.00000000	          0.00000000	          0.00000000	          0.00000000	          0.00000000	          0.00000000	         -0.07545912	          0.00000000	          0.00000000	         -0.00000000	          0.00000000	
          2.11700000	          5.98825497	        122.63850680	        -11.45704472	         -0.23873565	          0.00000000	         -0.03518127	         -0.00000000	          0.00000000	          0.00000000	          0.00000000	          0.00000000	          0.00000000	          0.00000000	         -0.08203904	          0.00000000	          0.00000000	         -0.00000000	          0.00000000	
          2.11800000	          5.74225413	        129.64900943	        -11.89379940	         -0.25574652	          0.00000000	         -0.03776937	         -0.00000000	          0.00000000	          0.00000000	          0.00000000	          0.00000000	          0.00000000	          0.00000000	         -0.08864201	          0.00000000	          0.00000000	         -0.00000000	          0.00000000	
          2.11900000	          5.45890321	        136.68912555	        -12.30698560	         -0.27215697	          0.00000000	         -0.04027372	         -0.00000000	          0.00000000	          0.00000000	          0.00000000	          0.00000000	          0.00000000	          0.00000000	         -0.09526990	          0.00000000	          0.00000000	         -0.00000000	          0.00000000	
          2.12000000	          5.13542496	        143.74925704	        -12.69473154	         -0.28795360	          0.00000000	         -0.04269268	         -0.00000000	          0.00000000	          0.00000000	          0.00000000	          0.00000000	          0.00000000	          0.00000000	         -0.10192673	          0.00000000	          0.00000000	         -0.00000000	          0.00000000	
          2.12100000	          4.76909314	        150.82063858	        -13.05520674	         -0.30312639	          0.00000000	         -0.04502506	         -0.00000000	          0.00000000	          0.00000000	          0.00000000	          0.00000000	          0.00000000	          0.00000000	         -0.10861875	          0.00000000	          0.00000000	         -0.00000000	          0.00000000	
          2.12200000	          4.35727962	        157.89540093	        -13.38661963	         -0.31766849	          0.00000000	         -0.04727018	         -0.00000000	          0.00000000	          0.00000000	          0.00000000	          0.00000000	          0.00000000	          0.00000000	         -0.11535446	          0.00000000	          0.00000000	         -0.00000000	          0.00000000	
          2.12300000	          3.89749814	        164.96659702	        -13.68721638	         -0.33157593	          0.00000000	         -0.04942774	         -0.00000000	          0.00000000	          0.00000000	          0.00000000	          0.00000000	          0.00000000	          0.00000000	         -0.12214448	          0.00000000	          0.00000000	          0.00000000	          0.00000000	
          2.12400000	          3.38744271	        172.02819435	        -13.95528158	         -0.34484741	          0.00000000	         -0.05149786	         -0.00000000	          0.00000000	          0.00000000	          0.00000000	          0.00000000	          0.00000000	          0.00000000	         -0.12900148	          0.00000000	          0.00000000	          0.00000000	          0.00000000	
          2.12500000	          2.82501956	        179.07503779	        -14.18914063	         -0.35748410	          0.00000000	         -0.05348099	         -0.00000000	          0.00000000	          0.00000000	          0.00000000	          0.00000000	          0.00000000	          0.00000000	         -0.13594019	          0.00000000	          0.00000000	          0.00000000	          0.00000000	
          2.12600000	          2.20837234	        186.10278749	        -14.38716363	         -0.36948938	          0.00000000	         -0.05537791	         -0.00000000	          0.00000000	          0.00000000	          0.00000000	          0.00000000	          0.00000000	          0.00000000	         -0.14297755	          0.00000000	          0.00000000	          0.00000000	          0.00000000	
          2.12700000	          1.53590102	        193.10783726	        -14.54777069	         -0.38086865	          0.00000000	         -0.05718966	         -0.00000000	          0.00000000	          0.00000000	          0.00000000	          0.00000000	          0.00000000	          0.00000000	         -0.15013283	          0.00000000	          0.00000000	          0.00000000	          0.00000000	
          2.12800000	          0.80627537	        200.08721972	        -14.66943831	         -0.39162916	          0.00000000	         -0.05891757	         -0.00000000	          0.00000000	          0.00000000	          0.00000000	          0.00000000	          0.00000000	          0.00000000	         -0.15742767	          0.00000000	          0.00000000	          0.00000000	          0.00000000	
          2.12900000	          0.01844429	        207.03850546	        -14.75070679	         -0.40177983	          0.00000000	         -0.06056314	         -0.00000000	          0.00000000	          0.00000000	          0.00000000	          0.00000000	          0.00000000	          0.00000000	         -0.16488598	          0.00000000	          0.00000000	          0.00000000	          0.00000000	
